<svg width="616" height="214" viewBox="0 0 616 214" fill="none" xmlns="http://www.w3.org/2000/svg">
<path d="M48.3068 210L63.8523 162.239H139.432L154.977 210H202.432L130.227 0.545448H73.1591L0.852273 210H48.3068ZM75.1023 127.67L100.875 48.4091H102.511L128.284 127.67H75.1023ZM270.392 0.545448H226.824V210H270.392V0.545448ZM376.884 213.068C415.747 213.068 441.929 194.148 448.065 165L407.77 162.341C403.372 174.307 392.122 180.545 377.599 180.545C355.815 180.545 342.009 166.125 342.009 142.705V142.602H448.986V130.636C448.986 77.25 416.668 50.8636 375.145 50.8636C328.918 50.8636 298.952 83.6932 298.952 132.17C298.952 181.977 328.509 213.068 376.884 213.068ZM342.009 115.602C342.929 97.7045 356.531 83.3864 375.861 83.3864C394.781 83.3864 407.872 96.8864 407.974 115.602H342.009ZM511.295 52.9091H466.295L511.295 131.455L464.659 210H509.659L540.136 155.693L571.125 210H615.614L568.875 131.455L614.386 52.9091H569.693L540.136 107.83L511.295 52.9091Z" fill="white"/>
</svg>
